<?xml version="1.0" standalone="no"?>
<!DOCTYPE svg PUBLIC "-//W3C//DTD SVG 20010904//EN"
 "http://www.w3.org/TR/2001/REC-SVG-20010904/DTD/svg10.dtd">
<svg version="1.0" xmlns="http://www.w3.org/2000/svg"
 width="126.000000pt" height="129.000000pt" viewBox="0 0 126.000000 129.000000"
 preserveAspectRatio="xMidYMid meet">

<g transform="translate(0.000000,129.000000) scale(0.100000,-0.100000)"
fill="#000000" stroke="none">
<path d="M524 1084 c-86 -31 -174 -140 -174 -216 0 -18 -5 -28 -14 -28 -8 0
-27 -11 -42 -25 -15 -14 -32 -25 -39 -25 -6 0 -22 -12 -36 -26 -23 -25 -24
-30 -27 -225 l-3 -199 -30 -29 c-16 -16 -29 -39 -29 -50 0 -17 6 -21 34 -21
21 0 36 6 40 15 7 19 35 19 42 0 4 -9 19 -15 41 -15 33 0 35 2 29 27 -4 16
-18 38 -31 50 -25 22 -25 23 -25 212 0 124 4 192 11 196 6 4 21 -2 33 -14 12
-12 27 -21 33 -21 7 0 12 -34 15 -87 5 -123 46 -196 137 -243 31 -15 36 -23
38 -56 3 -49 23 -64 88 -64 61 0 85 19 85 68 0 27 6 35 39 51 87 45 141 145
141 265 1 59 2 62 36 84 20 12 40 20 45 16 5 -3 9 -90 9 -194 l0 -188 -30 -30
c-16 -17 -30 -40 -30 -51 0 -17 6 -21 34 -21 21 0 36 6 40 15 3 8 12 15 21 15
9 0 18 -7 21 -15 7 -17 74 -21 74 -5 0 21 -31 70 -50 80 -19 10 -20 21 -20
211 0 234 8 217 -132 294 -9 5 -21 28 -26 52 -34 157 -198 250 -348 197z m136
-17 c0 -33 -53 -50 -78 -25 -25 25 -13 38 33 38 30 0 45 -4 45 -13z m-110 -9
c0 -24 34 -48 66 -48 26 0 38 6 51 28 9 15 18 29 20 31 1 2 22 -8 47 -23 65
-38 100 -88 120 -168 l6 -28 -245 0 c-279 0 -264 -6 -221 85 25 53 62 93 111
118 36 20 45 21 45 5z m-24 -265 c1 -18 2 -37 3 -43 0 -6 37 -10 86 -10 l85 0
0 45 0 45 81 0 c60 0 80 -3 77 -12 -3 -8 -29 -15 -64 -17 l-59 -5 60 -5 c44
-5 60 -10 60 -21 0 -10 -14 -17 -40 -21 l-40 -5 39 -5 c45 -5 63 -29 22 -29
-32 0 -35 -17 -3 -22 19 -3 22 -10 25 -60 2 -32 -2 -76 -8 -99 l-11 -41 -32
53 c-21 36 -48 63 -81 84 -113 69 -268 17 -321 -109 -17 -40 -27 -19 -33 71
l-5 73 62 0 c34 0 61 4 61 10 0 6 -27 10 -60 10 -47 0 -60 3 -60 15 0 11 12
15 46 15 27 0 43 4 39 10 -3 6 -24 10 -46 10 -28 0 -39 4 -39 15 0 9 9 15 25
15 14 0 25 5 25 10 0 6 -11 10 -25 10 -20 0 -25 5 -25 25 0 26 0 26 78 23 l77
-3 1 -32z m154 22 c0 -12 -14 -15 -65 -15 -51 0 -65 3 -65 15 0 12 14 15 65
15 51 0 65 -3 65 -15z m-330 -50 c0 -57 -8 -66 -34 -39 -27 27 -13 94 19 94
11 0 15 -13 15 -55z m562 38 c22 -20 23 -42 2 -71 -24 -35 -34 -26 -34 33 0
59 4 64 32 38z m-232 -38 c0 -12 -14 -15 -65 -15 -51 0 -65 3 -65 15 0 12 14
15 65 15 51 0 65 -3 65 -15z m-400 -1 c0 -3 -10 -14 -22 -24 -22 -18 -23 -25
-26 -209 -2 -118 -7 -191 -13 -191 -7 0 -9 69 -7 194 3 174 5 196 22 215 18
19 46 29 46 15z m710 -14 c19 -19 20 -33 20 -215 0 -123 -4 -195 -10 -195 -6
0 -10 72 -10 195 0 184 -1 196 -20 207 -11 7 -20 16 -20 20 0 14 20 8 40 -12z
m-307 -126 c56 -19 110 -77 125 -135 10 -39 9 -40 -35 -79 -48 -42 -73 -50
-73 -25 0 8 -9 24 -20 35 -37 37 -150 18 -150 -25 0 -8 -5 -17 -10 -20 -14 -9
-74 30 -95 61 -16 24 -16 29 -1 68 20 53 69 101 121 120 53 19 82 19 138 0z
m-29 -210 c33 -13 14 -24 -39 -24 -51 0 -72 12 -42 23 18 8 63 8 81 1z m26
-54 c0 -6 -28 -10 -65 -10 -37 0 -65 4 -65 10 0 6 28 10 65 10 37 0 65 -4 65
-10z m0 -45 c0 -12 -14 -15 -65 -15 -51 0 -65 3 -65 15 0 12 14 15 65 15 51 0
65 -3 65 -15z m-412 -11 c22 -15 30 -44 13 -44 -5 0 -14 7 -21 15 -16 20 -49
19 -71 -1 -31 -28 -46 -10 -17 19 31 30 63 34 96 11z m780 0 c12 -8 22 -22 22
-30 0 -19 -26 -18 -34 1 -3 8 -16 15 -29 15 -14 0 -30 -7 -37 -15 -14 -17 -40
-20 -40 -6 0 16 51 51 74 51 12 0 32 -7 44 -16z m-383 -34 c-8 -13 -85 -13
-105 0 -11 7 4 10 48 10 40 0 61 -4 57 -10z"/>
<path d="M503 1000 c-65 -26 -43 -120 27 -120 48 0 78 64 48 102 -17 21 -48
29 -75 18z m55 -32 c30 -30 0 -75 -42 -64 -29 7 -40 31 -26 57 12 21 50 25 68
7z"/>
<path d="M670 997 c-32 -16 -40 -70 -14 -98 38 -42 104 -12 104 48 0 47 -45
72 -90 50z m65 -51 c0 -52 -63 -62 -73 -12 -7 33 6 47 40 44 29 -3 33 -7 33
-32z"/>
</g>
</svg>
