<?xml version="1.0" standalone="no"?>
<!DOCTYPE svg PUBLIC "-//W3C//DTD SVG 20010904//EN"
 "http://www.w3.org/TR/2001/REC-SVG-20010904/DTD/svg10.dtd">
<svg version="1.0" xmlns="http://www.w3.org/2000/svg"
 width="482.000000pt" height="482.000000pt" viewBox="0 0 482.000000 482.000000"
 preserveAspectRatio="xMidYMid meet">

<g transform="translate(0.000000,482.000000) scale(0.100000,-0.100000)"
fill="#000000" stroke="none">
<path d="M1300 4094 c-43 -19 -77 -50 -98 -89 -21 -41 -20 -131 2 -175 10 -19
289 -306 619 -638 l602 -602 603 602 c409 408 610 616 623 643 63 135 -50 292
-197 271 -25 -3 -59 -13 -77 -22 -17 -9 -239 -223 -492 -475 l-460 -459 -460
460 c-300 301 -474 467 -501 480 -48 24 -115 25 -164 4z"/>
<path d="M771 3569 c-101 -40 -148 -154 -106 -257 11 -25 162 -183 483 -504
l467 -468 -471 -472 c-462 -464 -472 -474 -484 -526 -30 -129 38 -231 160
-240 32 -2 73 1 91 7 25 8 206 183 644 621 l610 610 -605 605 c-333 333 -619
612 -637 620 -34 17 -115 19 -152 4z"/>
<path d="M3945 3568 c-35 -9 -123 -93 -655 -624 l-615 -614 600 -600 c398
-398 614 -607 641 -620 81 -40 186 -16 240 55 21 28 29 51 32 95 8 110 22 93
-486 602 l-467 468 461 462 c309 310 467 476 479 503 71 155 -64 316 -230 273z"/>
<path d="M1813 1477 c-331 -331 -608 -616 -617 -634 -9 -18 -16 -57 -16 -89 0
-70 32 -131 87 -166 48 -29 140 -31 193 -4 19 10 243 226 498 479 l462 462
468 -467 c321 -321 479 -472 504 -483 104 -42 228 17 258 123 13 49 13 59 -6
123 -15 52 -37 75 -607 647 -326 326 -599 597 -608 602 -12 7 -145 -121 -616
-593z"/>
</g>
</svg>
